<?xml version="1.0" standalone="no"?>
<!DOCTYPE svg PUBLIC "-//W3C//DTD SVG 20010904//EN"
 "http://www.w3.org/TR/2001/REC-SVG-20010904/DTD/svg10.dtd">
<svg version="1.0" xmlns="http://www.w3.org/2000/svg"
 width="1800.000000pt" height="600.000000pt" viewBox="0 0 1800.000000 600.000000"
 preserveAspectRatio="xMidYMid meet">
<metadata>
Created by potrace 1.14, written by Peter Selinger 2001-2017
</metadata>
<g transform="translate(0.000000,600.000000) scale(0.100000,-0.100000)"
fill="#000000" stroke="none">
<path id="A"  d="M2800 4873 c-35 -76 -90 -194 -123 -263 -33 -69 -115 -242 -182 -385
-67 -143 -223 -471 -345 -730 -122 -258 -235 -497 -250 -530 -15 -33 -56 -118
-90 -190 -148 -311 -210 -445 -210 -455 0 -7 49 -10 148 -8 l147 3 22 45 c26
52 129 269 250 525 47 99 133 281 192 405 60 124 204 429 321 678 118 248 217
452 220 452 3 0 34 -62 70 -137 35 -76 89 -192 121 -258 170 -360 312 -663
357 -765 28 -63 140 -302 250 -530 l198 -415 147 -3 c81 -1 147 0 147 2 0 3
-224 485 -498 1073 -274 587 -557 1193 -628 1346 l-129 277 -35 0 -36 0 -64
-137z"/>
<path d="M4643 3663 l2 -1348 119 -3 c65 -2 129 -1 142 2 l24 6 0 1007 c0 553
1 1007 3 1009 1 2 401 -454 887 -1012 525 -601 891 -1014 901 -1014 10 0 25 3
33 6 15 6 16 131 16 1350 l0 1344 -140 0 -140 0 0 -1020 c0 -561 -1 -1021 -4
-1022 -4 -3 -195 215 -1306 1495 -447 515 -476 547 -507 547 l-33 0 3 -1347z"/>
<path d="M10230 3660 l0 -1350 135 0 135 0 0 1350 0 1350 -135 0 -135 0 0
-1350z"/>
<path d="M11150 4875 l0 -135 775 0 775 0 0 135 0 135 -775 0 -775 0 0 -135z"/>
<path d="M14280 3659 l0 -1350 138 3 137 3 5 1013 5 1014 868 -996 c477 -547
876 -1005 886 -1017 15 -18 24 -21 54 -15 l37 7 0 1344 0 1345 -140 0 -140 0
-2 -1029 -3 -1030 -893 1030 c-803 925 -897 1029 -923 1029 l-29 0 0 -1351z"/>
<path d="M7465 4988 c-3 -7 -4 -614 -3 -1348 l3 -1334 30 -3 c28 -2 84 60 915
1013 l885 1016 5 -1014 5 -1013 138 -1 137 -2 0 1349 0 1349 -29 0 c-30 0 60
102 -1311 -1477 l-505 -582 -3 1030 -2 1029 -130 0 c-95 0 -132 -3 -135 -12z"/>
<path d="M11150 3765 l0 -135 768 3 767 2 3 133 3 132 -771 0 -770 0 0 -135z"/>
<path d="M13425 2618 c-89 -32 -129 -96 -123 -193 6 -104 72 -168 173 -169 91
0 161 54 185 146 35 128 -111 262 -235 216z" fill="#f50000"/>
<path d="M11152 2448 l3 -133 765 0 765 0 3 133 3 132 -771 0 -771 0 3 -132z"/>
<path d="M5130 1701 c-14 -5 -45 -18 -69 -30 -44 -23 -44 -23 -24 -43 20 -19
20 -19 54 1 68 42 162 36 207 -12 12 -12 24 -41 28 -65 l7 -42 -60 0 c-132 0
-224 -33 -255 -90 -67 -126 84 -246 228 -181 22 10 50 31 62 46 l22 28 0 -42
c0 -38 2 -41 28 -41 l27 0 -3 152 c-3 211 -7 235 -46 274 -47 47 -136 66 -206
45z m196 -287 c-7 -57 -37 -107 -72 -123 -107 -48 -219 9 -188 97 15 46 82 72
182 72 l85 0 -7 -46z" fill="#f50000"/>
<path d="M5944 1692 c-22 -11 -50 -31 -61 -46 l-21 -26 -7 40 c-6 34 -11 40
-31 40 l-24 0 0 -235 0 -235 29 0 29 0 4 158 c3 141 5 161 25 192 54 86 184
101 233 27 11 -17 16 -65 18 -199 l4 -178 30 0 30 0 -4 183 c-3 198 -10 226
-69 269 -39 29 -133 34 -185 10z"/>
<path d="M6764 1692 c-22 -11 -50 -31 -61 -46 l-21 -26 -7 40 c-6 34 -11 40
-31 40 l-24 0 0 -235 0 -235 29 0 29 0 4 158 c3 141 5 161 25 192 54 86 184
101 233 27 11 -17 16 -65 18 -199 l4 -178 30 0 30 0 -4 183 c-3 198 -10 226
-69 269 -39 29 -133 34 -185 10z"/>
<path d="M8070 1701 c-86 -28 -140 -86 -160 -172 -43 -180 84 -327 263 -306
53 7 132 48 151 80 9 15 7 21 -8 33 -18 12 -22 12 -40 -5 -100 -91 -246 -69
-297 43 -36 79 -44 76 177 76 l197 0 -6 55 c-12 116 -87 193 -193 201 -32 2
-70 0 -84 -5z m141 -67 c34 -17 67 -63 75 -103 l7 -31 -167 0 c-108 0 -166 4
-166 10 0 19 37 84 58 103 50 45 130 54 193 21z"/>
<path d="M8894 1691 c-22 -10 -50 -31 -62 -46 l-21 -27 -7 41 c-6 35 -10 41
-30 41 l-24 0 0 -235 0 -235 30 0 30 0 0 148 c0 136 2 153 23 193 16 31 36 51
67 67 51 26 78 27 124 8 56 -23 66 -60 66 -250 l0 -166 31 0 31 0 -4 178 c-3
153 -6 182 -23 217 -38 75 -144 106 -231 66z" fill="#f50000"/>
<path d="M9730 1701 c-110 -34 -174 -119 -174 -231 0 -70 16 -114 63 -163 82
-90 233 -100 316 -23 l35 33 0 -56 c0 -78 -17 -130 -54 -167 -72 -72 -203 -66
-287 12 l-25 24 -22 -23 -22 -23 23 -22 c72 -68 237 -90 325 -44 54 29 97 89
111 153 6 28 11 157 11 289 l0 240 -30 0 c-28 0 -30 -2 -30 -39 l0 -38 -35 33
c-51 48 -134 66 -205 45z m105 -52 c77 -20 135 -96 135 -179 0 -119 -112 -209
-223 -179 -59 16 -122 81 -132 137 -16 98 32 186 120 217 49 17 47 17 100 4z"/>
<path d="M12120 1701 c-86 -28 -140 -86 -160 -172 -43 -180 84 -327 263 -306
53 7 132 48 151 80 9 15 7 21 -8 33 -18 12 -22 12 -40 -5 -100 -91 -246 -69
-297 43 -36 79 -44 76 177 76 l197 0 -6 55 c-12 116 -87 193 -193 201 -32 2
-70 0 -84 -5z m141 -67 c34 -17 67 -63 75 -103 l7 -31 -167 0 c-108 0 -166 4
-166 10 0 19 37 84 58 103 50 45 130 54 193 21z"/>
<path d="M12934 1692 c-22 -11 -50 -31 -61 -46 l-21 -26 -7 40 c-6 34 -11 40
-31 40 l-24 0 0 -235 0 -235 29 0 29 0 4 158 c3 141 5 161 25 192 54 86 184
101 233 27 11 -17 16 -65 18 -199 l4 -178 30 0 30 0 -4 183 c-3 198 -10 226
-69 269 -39 29 -133 34 -185 10z"/>
<path d="M14257 1696 c-147 -53 -202 -240 -112 -378 56 -85 184 -120 282 -78
28 12 60 31 70 42 17 19 17 20 -7 38 -25 19 -25 19 -51 -6 -83 -80 -238 -29
-270 88 -15 58 -5 133 25 178 50 75 161 97 234 46 34 -23 44 -26 61 -16 26 13
26 22 3 43 -56 51 -160 69 -235 43z"/>
<path d="M14997 1694 c-134 -42 -194 -210 -126 -351 72 -149 323 -163 415 -24
80 122 40 303 -80 361 -59 28 -147 34 -209 14z m138 -45 c78 -20 135 -97 135
-184 0 -126 -109 -214 -231 -185 -177 43 -186 313 -12 367 49 15 56 15 108 2z"/>
<path d="M15864 1691 c-22 -10 -50 -30 -61 -45 l-21 -26 -7 40 c-6 34 -11 40
-31 40 l-24 0 0 -235 0 -235 29 0 29 0 4 158 c3 141 5 161 25 192 37 60 122
94 173 68 50 -26 60 -67 60 -250 l0 -168 30 0 30 0 0 148 c0 81 5 164 10 184
29 105 179 128 223 35 14 -28 17 -67 17 -201 l0 -166 30 0 30 0 0 163 c0 184
-9 228 -54 273 -61 61 -179 55 -242 -11 l-31 -34 -23 31 c-42 57 -121 73 -196
39z"/>
<path d="M1610 1692 c0 -4 25 -89 55 -188 94 -303 83 -276 118 -272 30 3 31 4
91 185 34 100 64 184 67 187 3 3 22 -43 43 -102 105 -295 95 -273 130 -270
l31 3 67 230 c37 127 67 231 68 233 0 1 -13 2 -30 2 -33 0 -25 21 -95 -235
-20 -71 -38 -137 -41 -145 -3 -8 -36 73 -73 180 -66 191 -68 195 -97 198 l-30
3 -63 -196 c-35 -107 -66 -194 -68 -192 -2 3 -28 89 -57 193 l-52 189 -32 3
c-18 2 -32 -1 -32 -6z"/>
<path d="M2570 1692 c0 -4 25 -89 55 -188 94 -303 83 -276 118 -272 30 3 31 4
91 185 34 100 64 184 67 187 3 3 22 -43 43 -102 105 -295 95 -273 130 -270
l31 3 67 230 c37 127 67 231 68 233 0 1 -13 2 -30 2 -33 0 -25 21 -95 -235
-20 -71 -38 -137 -41 -145 -3 -8 -36 73 -73 180 -66 191 -68 195 -97 198 l-30
3 -63 -196 c-35 -107 -66 -194 -68 -192 -2 3 -28 89 -57 193 l-52 189 -32 3
c-18 2 -32 -1 -32 -6z"/>
<path d="M3530 1692 c0 -4 25 -89 55 -188 94 -303 83 -276 118 -272 30 3 31 4
91 185 34 100 64 184 67 187 3 3 22 -43 43 -102 105 -295 95 -273 130 -270
l31 3 67 230 c37 127 67 231 68 233 0 1 -13 2 -30 2 -33 0 -25 21 -95 -235
-20 -71 -38 -137 -41 -145 -3 -8 -36 73 -73 180 -66 191 -68 195 -97 198 l-30
3 -63 -196 c-35 -107 -66 -194 -68 -192 -2 3 -28 89 -57 193 l-52 189 -32 3
c-18 2 -32 -1 -32 -6z"/>
<circle cx="4600" cy="1300" r="70"/>
<circle cx="13700" cy="1300" r="70"/>
<path d="M7440 1465 l0 -235 30 0 30 0 0 235 0 235 -30 0 -30 0 0 -235z"/>
<path d="M10432 1518 c3 -199 10 -227 68 -270 62 -46 192 -29 244 32 l24 30 7
-40 c6 -34 11 -40 31 -40 l24 0 0 235 0 235 -29 0 -29 0 -4 -157 c-3 -137 -6
-163 -23 -191 -53 -87 -186 -104 -235 -29 -11 17 -16 65 -18 200 l-4 177 -30
0 -30 0 4 -182z"/>
<path d="M11190 1697 c0 -1 41 -104 90 -227 50 -123 90 -232 90 -240 0 -32
-52 -145 -76 -168 -21 -18 -33 -21 -60 -16 -32 6 -34 4 -34 -20 0 -19 6 -27
25 -32 40 -10 89 4 118 34 22 23 116 249 252 610 l24 62 -32 0 -32 0 -69 -184
c-38 -102 -72 -189 -75 -195 -4 -5 -40 78 -81 184 l-75 195 -32 0 c-18 0 -33
-1 -33 -3z"/>
</g>
</svg>
